<svg width="114" height="46" viewBox="0 0 114 46" fill="none" xmlns="http://www.w3.org/2000/svg">
<path d="M0.897727 6.05114V1.36364H33.625V6.05114H19.9034V45H14.6193V6.05114H0.897727ZM65.6438 12.2727C65.3881 10.1136 64.3512 8.4375 62.533 7.24432C60.7148 6.05114 58.4847 5.45454 55.8427 5.45454C53.9109 5.45454 52.2205 5.76704 50.7717 6.39204C49.337 7.01704 48.2148 7.87642 47.4052 8.97017C46.6097 10.0639 46.212 11.3068 46.212 12.6989C46.212 13.8636 46.489 14.8651 47.043 15.7031C47.6112 16.527 48.3356 17.2159 49.2163 17.7699C50.0969 18.3097 51.0202 18.7571 51.9862 19.1122C52.9521 19.4531 53.8398 19.7301 54.6495 19.9432L59.0813 21.1364C60.2177 21.4347 61.4819 21.8466 62.8739 22.3722C64.2802 22.8977 65.6225 23.6151 66.9009 24.5241C68.1935 25.419 69.2589 26.5696 70.0969 27.9759C70.935 29.3821 71.354 31.108 71.354 33.1534C71.354 35.5114 70.7362 37.642 69.5004 39.5455C68.2788 41.4489 66.489 42.9616 64.131 44.0838C61.7873 45.206 58.9393 45.767 55.587 45.767C52.462 45.767 49.756 45.2628 47.4691 44.2543C45.1964 43.2457 43.4066 41.8395 42.0998 40.0355C40.8072 38.2315 40.0756 36.1364 39.9052 33.75H45.3597C45.5018 35.3977 46.0558 36.7614 47.0217 37.8409C48.0018 38.9062 49.2376 39.7017 50.729 40.2273C52.2347 40.7386 53.854 40.9943 55.587 40.9943C57.604 40.9943 59.4151 40.6676 61.0202 40.0142C62.6254 39.3466 63.8967 38.4233 64.8342 37.2443C65.7717 36.0511 66.2404 34.6591 66.2404 33.0682C66.2404 31.6193 65.8356 30.4403 65.0259 29.5312C64.2163 28.6222 63.1509 27.8835 61.8299 27.3153C60.5089 26.7472 59.0813 26.25 57.5472 25.8239L52.1779 24.2898C48.7688 23.3097 46.07 21.9105 44.0813 20.0923C42.0927 18.2741 41.0984 15.8949 41.0984 12.9545C41.0984 10.5114 41.7589 8.38068 43.0799 6.5625C44.4151 4.73011 46.2049 3.30966 48.4492 2.30114C50.7077 1.27841 53.229 0.767044 56.0131 0.767044C58.8256 0.767044 61.3256 1.27131 63.5131 2.27983C65.7006 3.27415 67.4336 4.63778 68.712 6.37074C70.0046 8.10369 70.6864 10.071 70.7575 12.2727H65.6438ZM80.0419 45V1.36364H85.326V20.7955H108.593V1.36364H113.877V45H108.593V25.483H85.326V45H80.0419Z" fill="white"/>
</svg>
